<svg width="332" height="80" version="1.1" xmlns="http://www.w3.org/2000/svg" desc="Created with imagetracer.js version 1.2.6" ><path fill="rgb(207,198,202)" stroke="rgb(207,198,202)" stroke-width="1" opacity="0.47843137254901963" d="M 163 23 Q 165.7 21.9 165 24.5 L 164 27.5 L 164.5 29 L 163 28.5 L 163 23 Z " /><path fill="rgb(207,198,202)" stroke="rgb(207,198,202)" stroke-width="1" opacity="0.47843137254901963" d="M 168 23 L 170 23.5 L 168 24.5 L 168 23 Z " /><path fill="rgb(207,198,202)" stroke="rgb(207,198,202)" stroke-width="1" opacity="0.47843137254901963" d="M 135.5 24 L 136 54.5 L 135 54.5 L 135.5 24 Z " /><path fill="rgb(207,198,202)" stroke="rgb(207,198,202)" stroke-width="1" opacity="0.47843137254901963" d="M 274.5 25 L 277 25 L 277 31.5 L 277.5 33 Q 274.5 33.5 276 26.5 L 274.5 27 L 271.5 29 L 271 27 L 274.5 25 Z " /><path fill="rgb(207,198,202)" stroke="rgb(207,198,202)" stroke-width="1" opacity="0.47843137254901963" d="M 89.5 32 L 97 32.5 Q 88 31.5 85 36.5 Q 84.3 38.8 86.5 38 L 87.5 39 L 90.5 36 Q 96.8 34.8 98 38.5 Q 99.7 43.3 95.5 42 L 84.5 46 L 84 44 L 97 41 Q 98.5 37.2 95.5 38 L 91.5 37 L 89 38 Q 90.3 41.3 85.5 40 L 84 36.5 L 86 33 L 89.5 32 Z " /><path fill="rgb(207,198,202)" stroke="rgb(207,198,202)" stroke-width="1" opacity="0.47843137254901963" d="M 114.5 32 Q 126.3 30.2 129 37.5 Q 129.6 40.3 123.5 39 Q 122 35.5 115.5 37 L 114 40 Q 122.7 40 128 44.5 L 130 47.5 L 128 48 L 125.5 44 L 116.5 42 L 113 39.5 L 114.5 36 L 121.5 36 Q 122.8 39 127 38 L 124.5 34 Q 121.3 31.7 114.5 33 L 109.5 37 L 110 35.5 Q 109.3 33.3 111.5 34 L 114.5 32 Z " /><path fill="rgb(207,198,202)" stroke="rgb(207,198,202)" stroke-width="1" opacity="0.47843137254901963" d="M 146.5 32 Q 151.9 31.4 154 33 L 156 37.5 L 155 37.5 L 151.5 33 Q 143.9 31.9 142 36.5 L 143.5 37 L 148.5 36 L 151 37 L 152 41.5 L 150 42.5 Q 151.9 37.1 148.5 38 L 145.5 37 L 141.5 40 L 142 38.5 L 140 35.5 Q 142.2 37.2 144.5 33 L 146.5 32 Z " /><path fill="rgb(207,198,202)" stroke="rgb(207,198,202)" stroke-width="1" opacity="0.47843137254901963" d="M 183.5 32 L 190 32.5 Q 179.8 31.8 177 38.5 L 176.5 40 L 176 38.5 L 179.5 34 L 183.5 32 Z " /><path fill="rgb(207,198,202)" stroke="rgb(207,198,202)" stroke-width="1" opacity="0.47843137254901963" d="M 215.5 32 Q 220.9 31.1 223 33.5 L 221.5 34 Q 220.2 31.8 215.5 33 L 210 37.5 L 211.5 38 Q 212.5 35 217.5 36 L 219.5 39 L 214.5 37 L 210.5 40 L 209 37.5 L 209 35.5 L 209.5 33 L 210.5 36 L 211 34 L 215.5 32 Z " /><path fill="rgb(207,198,202)" stroke="rgb(207,198,202)" stroke-width="1" opacity="0.47843137254901963" d="M 250.5 32 L 258 32.5 L 250.5 33 L 250.5 32 Z " /><path fill="rgb(207,198,202)" stroke="rgb(207,198,202)" stroke-width="1" opacity="0.47843137254901963" d="M 291.5 32 L 300 32.5 L 291.5 33 L 287.5 36 L 289.5 33 L 291.5 32 Z " /><path fill="rgb(207,198,202)" stroke="rgb(207,198,202)" stroke-width="1" opacity="0.47843137254901963" d="M 317.5 32 L 324 32.5 L 317.5 33 L 317.5 32 Z " /><path fill="rgb(207,198,202)" stroke="rgb(207,198,202)" stroke-width="1" opacity="0.47843137254901963" d="M 98.5 33 L 102 34.5 L 103 36.5 L 103 53.5 L 104 57 Q 99.4 58.3 98 55.5 L 97.5 54 L 91.5 57 L 91.5 56 L 97.5 53 Q 98.7 56.8 103 56 L 102 53.5 L 102 36.5 L 99.5 34 L 98.5 33 Z " /><path fill="rgb(207,198,202)" stroke="rgb(207,198,202)" stroke-width="1" opacity="0.47843137254901963" d="M 163 33 L 165 33.5 L 164 34.5 L 164 54.5 L 167.5 56 L 169 55.5 Q 169.9 58.9 164.5 57 L 163 55.5 L 163 33 Z " /><path fill="rgb(207,198,202)" stroke="rgb(207,198,202)" stroke-width="1" opacity="0.47843137254901963" d="M 191.5 33 L 196 35.5 Q 200.5 39 199 48.5 L 193.5 56 L 188.5 57 L 188.5 56 Q 194.9 55.4 197 50.5 L 198 41.5 L 192.5 34 L 191.5 33 Z " /><path fill="rgb(207,198,202)" stroke="rgb(207,198,202)" stroke-width="1" opacity="0.47843137254901963" d="M 204.5 33 L 205 55 L 203 54.5 L 203 34.5 L 204.5 33 Z " /><path fill="rgb(207,198,202)" stroke="rgb(207,198,202)" stroke-width="1" opacity="0.47843137254901963" d="M 259.5 33 L 264 36.5 Q 265.4 41.1 259.5 39 L 258.5 37 L 262 38 L 260.5 34 L 259.5 33 Z " /><path fill="rgb(207,198,202)" stroke="rgb(207,198,202)" stroke-width="1" opacity="0.47843137254901963" d="M 267 33 Q 270.7 31.6 269 37.5 L 268 37.5 L 267 33 Z " /><path fill="rgb(207,198,202)" stroke="rgb(207,198,202)" stroke-width="1" opacity="0.47843137254901963" d="M 301.5 33 Q 307.3 34.7 306 42 Q 303.3 43.1 304 40.5 L 304 38.5 L 301.5 33 Z " /><path fill="rgb(207,198,202)" stroke="rgb(207,198,202)" stroke-width="1" opacity="0.47843137254901963" d="M 313 33 L 316 33.5 L 312 36.5 L 311 39.5 L 312 41.5 L 310 40.5 L 310 37.5 L 313 33 Z " /><path fill="rgb(207,198,202)" stroke="rgb(207,198,202)" stroke-width="1" opacity="0.47843137254901963" d="M 325.5 33 L 329 34 L 330 39 Q 324.9 40.3 323.5 37 L 317 37 Q 315.5 40.7 318.5 40 L 326.5 42 L 330 44.5 L 328.5 45 Q 323.5 41.2 316 41 L 315 38.5 L 316 36 L 323.5 36 Q 324.8 39 329 38 L 326.5 34 L 325.5 33 Z " /><path fill="rgb(207,198,202)" stroke="rgb(207,198,202)" stroke-width="1" opacity="0.47843137254901963" d="M 246.5 34 L 246 35.5 L 245 41.5 Q 247.7 46.3 255 46.5 L 251.5 47 L 244 42.5 Q 243 36 246.5 34 Z " /><path fill="rgb(207,198,202)" stroke="rgb(207,198,202)" stroke-width="1" opacity="0.47843137254901963" d="M 185.5 36 Q 191.7 35.3 193 39.5 L 192.5 41 L 192 39 Q 189.6 37.3 183.5 38 Q 180.5 40 181 45.5 L 183.5 51 L 188 52.5 L 185.5 53 L 181 49.5 L 180 41.5 L 183.5 37 L 185.5 36 Z " /><path fill="rgb(207,198,202)" stroke="rgb(207,198,202)" stroke-width="1" opacity="0.47843137254901963" d="M 224 36 L 226 36.5 L 226 55.5 Q 225 58 220.5 57 L 219 55.5 L 219 41.5 L 220 41.5 L 221 43.5 L 220 44.5 L 220 54.5 L 223.5 56 L 225 54.5 L 225 38.5 L 224 36 Z " /><path fill="rgb(207,198,202)" stroke="rgb(207,198,202)" stroke-width="1" opacity="0.47843137254901963" d="M 250.5 36 L 257 36.5 L 250 37 Q 248.3 41.1 252.5 40 L 260.5 42 L 264 44.5 L 263.5 46 L 259.5 43 Q 252.2 43.3 249 39.5 L 250.5 36 Z " /><path fill="rgb(207,198,202)" stroke="rgb(207,198,202)" stroke-width="1" opacity="0.47843137254901963" d="M 292.5 36 Q 297.9 35.4 300 37 Q 301.1 39.7 298.5 39 Q 297.7 36.3 293.5 37 L 288.5 40 L 286 39 L 286.5 37 L 289.5 39 L 292.5 36 Z " /><path fill="rgb(207,198,202)" stroke="rgb(207,198,202)" stroke-width="1" opacity="0.47843137254901963" d="M 276 37 L 278 37.5 L 277 38.5 L 277 49.5 L 278 51.5 L 276 50.5 L 276 37 Z " /><path fill="rgb(207,198,202)" stroke="rgb(207,198,202)" stroke-width="1" opacity="0.47843137254901963" d="M 108.5 38 L 110 41.5 L 108 42.5 L 108 40.5 L 108.5 38 Z " /><path fill="rgb(207,198,202)" stroke="rgb(207,198,202)" stroke-width="1" opacity="0.47843137254901963" d="M 175.5 41 L 176 48.5 L 175 48.5 L 175.5 41 Z " /><path fill="rgb(207,198,202)" stroke="rgb(207,198,202)" stroke-width="1" opacity="0.47843137254901963" d="M 210.5 41 L 211 55.5 Q 210 58 205.5 57 L 205.5 56 L 209 55.5 L 209 44.5 L 210.5 41 Z " /><path fill="rgb(207,198,202)" stroke="rgb(207,198,202)" stroke-width="1" opacity="0.47843137254901963" d="M 296.5 41 L 300 41.5 L 288.5 45 L 288 43 L 296.5 41 Z " /><path fill="rgb(207,198,202)" stroke="rgb(207,198,202)" stroke-width="1" opacity="0.47843137254901963" d="M 7.5 42 L 8 44.5 L 7 44.5 L 7.5 42 Z " /><path fill="rgb(207,198,202)" stroke="rgb(207,198,202)" stroke-width="1" opacity="0.47843137254901963" d="M 110.5 43 L 111.5 45 L 110.5 43 Z " /><path fill="rgb(207,198,202)" stroke="rgb(207,198,202)" stroke-width="1" opacity="0.47843137254901963" d="M 193.5 43 L 194 45.5 L 192 46.5 L 193.5 43 Z " /><path fill="rgb(207,198,202)" stroke="rgb(207,198,202)" stroke-width="1" opacity="0.47843137254901963" d="M 312.5 43 L 313.5 45 L 312.5 43 Z " /><path fill="rgb(207,198,202)" stroke="rgb(207,198,202)" stroke-width="1" opacity="0.47843137254901963" d="M 95.5 44 L 98 44 L 98 49.5 L 97 49.5 Q 98.9 44.1 95.5 45 L 95.5 44 Z " /><path fill="rgb(207,198,202)" stroke="rgb(207,198,202)" stroke-width="1" opacity="0.47843137254901963" d="M 294.5 45 L 297 45.5 L 294.5 46 L 294.5 45 Z " /><path fill="rgb(207,198,202)" stroke="rgb(207,198,202)" stroke-width="1" opacity="0.47843137254901963" d="M 305.5 45 L 306 57 L 301 57 L 301 55.5 L 300 53.5 L 301 53.5 L 302.5 56 Q 306.3 57.3 305 53.5 Q 302.5 52 304 46.5 L 305.5 45 Z " /><path fill="rgb(207,198,202)" stroke="rgb(207,198,202)" stroke-width="1" opacity="0.47843137254901963" d="M 89.5 46 L 91 46.5 L 88 48.5 L 89 52 L 96.5 51 L 96.5 52 L 89.5 53 L 87 48.5 L 89.5 46 Z " /><path fill="rgb(207,198,202)" stroke="rgb(207,198,202)" stroke-width="1" opacity="0.47843137254901963" d="M 116.5 46 L 119 46.5 L 116.5 47 L 116.5 46 Z " /><path fill="rgb(207,198,202)" stroke="rgb(207,198,202)" stroke-width="1" opacity="0.47843137254901963" d="M 291.5 46 L 293 46.5 L 290 48.5 L 291.5 46 Z " /><path fill="rgb(207,198,202)" stroke="rgb(207,198,202)" stroke-width="1" opacity="0.47843137254901963" d="M 318.5 46 L 321 46.5 L 318.5 47 L 318.5 46 Z " /><path fill="rgb(207,198,202)" stroke="rgb(207,198,202)" stroke-width="1" opacity="0.47843137254901963" d="M 330.5 46 Q 332.8 46.8 332 50.5 L 331.5 53 Q 328.8 51.7 331 50.5 L 330.5 46 Z " /><path fill="rgb(207,198,202)" stroke="rgb(207,198,202)" stroke-width="1" opacity="0.47843137254901963" d="M 120.5 47 L 124 48.5 L 122.5 49 L 120.5 47 Z " /><path fill="rgb(207,198,202)" stroke="rgb(207,198,202)" stroke-width="1" opacity="0.47843137254901963" d="M 256.5 47 L 260 48 Q 260.8 51.8 257.5 53 L 251.5 53 Q 250.5 49 244.5 50 L 246 52.5 Q 245.3 54.8 247.5 54 L 253 56.5 L 249.5 57 L 245 53.5 L 243 49 Q 249.8 47.5 251.5 52 L 257.5 52 L 259 49.5 L 256.5 47 Z " /><path fill="rgb(207,198,202)" stroke="rgb(207,198,202)" stroke-width="1" opacity="0.47843137254901963" d="M 264.5 47 L 265 50.5 L 264 50.5 L 264.5 47 Z " /><path fill="rgb(207,198,202)" stroke="rgb(207,198,202)" stroke-width="1" opacity="0.47843137254901963" d="M 299.5 47 L 300 50.5 Q 299.5 53.5 295.5 53 L 295.5 52 L 299 50.5 L 299.5 47 Z " /><path fill="rgb(207,198,202)" stroke="rgb(207,198,202)" stroke-width="1" opacity="0.47843137254901963" d="M 322.5 47 L 326 48.5 Q 326.8 52.3 324.5 53 Q 318.4 54.1 316 51.5 L 317.5 51 Q 318.8 53.3 323.5 52 L 325 48 Q 321.7 48.8 322.5 47 Z " /><path fill="rgb(207,198,202)" stroke="rgb(207,198,202)" stroke-width="1" opacity="0.47843137254901963" d="M 192.5 48 L 193 49.5 L 189.5 52 L 189.5 51 L 192 49.5 L 192.5 48 Z " /><path fill="rgb(207,198,202)" stroke="rgb(207,198,202)" stroke-width="1" opacity="0.47843137254901963" d="M 108.5 49 L 112.5 49 Q 115 53 122 52.5 L 116.5 53 Q 114.4 49.1 109 50 L 112.5 55 L 118 56.5 L 114.5 57 L 110 55 L 107 50.5 L 108.5 49 Z " /><path fill="rgb(207,198,202)" stroke="rgb(207,198,202)" stroke-width="1" opacity="0.47843137254901963" d="M 271.5 49 L 272 52.5 L 271 52.5 L 271.5 49 Z " /><path fill="rgb(207,198,202)" stroke="rgb(207,198,202)" stroke-width="1" opacity="0.47843137254901963" d="M 311.5 49 L 316 49.5 L 311 50 L 314.5 55 L 320 56.5 L 316.5 57 L 313 56 L 310 50.5 L 311.5 49 Z " /><path fill="rgb(207,198,202)" stroke="rgb(207,198,202)" stroke-width="1" opacity="0.47843137254901963" d="M 128 50 Q 131 49 130 52 Q 127.3 50.9 128 53.5 Q 126.4 57.9 119.5 57 L 119.5 56 Q 125.9 55.9 128 51.5 L 128 50 Z " /><path fill="rgb(207,198,202)" stroke="rgb(207,198,202)" stroke-width="1" opacity="0.47843137254901963" d="M 176.5 50 L 177.5 52 L 176.5 50 Z " /><path fill="rgb(207,198,202)" stroke="rgb(207,198,202)" stroke-width="1" opacity="0.47843137254901963" d="M 290.5 50 L 294 52.5 L 292.5 53 L 290 52 L 290.5 50 Z " /><path fill="rgb(207,198,202)" stroke="rgb(207,198,202)" stroke-width="1" opacity="0.47843137254901963" d="M 263.5 52 L 263 53.5 L 261.5 56 L 255.5 57 L 255.5 56 Q 261.5 56 263.5 52 Z " /><path fill="rgb(207,198,202)" stroke="rgb(207,198,202)" stroke-width="1" opacity="0.47843137254901963" d="M 280.5 52 L 282 52 L 282 57 L 278 56.5 L 281 54.5 L 280.5 52 Z " /><path fill="rgb(207,198,202)" stroke="rgb(207,198,202)" stroke-width="1" opacity="0.47843137254901963" d="M 285.5 52 L 292 56.5 L 289.5 57 L 287 56 Q 288 53 285 54 L 285.5 52 Z " /><path fill="rgb(207,198,202)" stroke="rgb(207,198,202)" stroke-width="1" opacity="0.47843137254901963" d="M 178.5 53 L 186 56.5 L 183.5 57 Q 178.9 56.3 178.5 53 Z " /><path fill="rgb(207,198,202)" stroke="rgb(207,198,202)" stroke-width="1" opacity="0.47843137254901963" d="M 329.5 53 L 327.5 56 L 322.5 57 L 322.5 56 L 329.5 53 Z " /><path fill="rgb(207,198,202)" stroke="rgb(207,198,202)" stroke-width="1" opacity="0.47843137254901963" d="M 84.5 54 L 90 56.5 L 86.5 57 L 84.5 54 Z " /><path fill="rgb(207,198,202)" stroke="rgb(207,198,202)" stroke-width="1" opacity="0.47843137254901963" d="M 272.5 54 L 277 56.5 L 274.5 57 L 272.5 54 Z " /><path fill="rgb(207,198,202)" stroke="rgb(207,198,202)" stroke-width="1" opacity="0.47843137254901963" d="M 297.5 54 L 299 54.5 L 293.5 57 L 293.5 56 L 297.5 54 Z " /><path fill="rgb(207,198,202)" stroke="rgb(207,198,202)" stroke-width="1" opacity="0.47843137254901963" d="M 139.5 55 Q 142.1 54.3 141 57 L 136 56.5 L 139.5 55 Z " /><path fill="rgb(207,198,202)" stroke="rgb(207,198,202)" stroke-width="1" opacity="0.47843137254901963" d="M 150 55 L 154.5 56 L 157 55 L 156.5 57 L 150 57 L 150 55 Z " /><path fill="rgb(207,198,202)" stroke="rgb(207,198,202)" stroke-width="1" opacity="0.47843137254901963" d="M 232 55 L 236.5 56 L 238.5 55 L 237.5 57 Q 230.6 59 232 55 Z " /><path fill="rgb(207,198,202)" stroke="rgb(207,198,202)" stroke-width="1" opacity="0.47843137254901963" d="M 16.5 62 L 18.5 65 L 16.5 62 Z " /><path fill="rgb(207,198,202)" stroke="rgb(207,198,202)" stroke-width="1" opacity="0.47843137254901963" d="M 43.5 72 L 46 72.5 L 43.5 73 L 43.5 72 Z " /><path fill="rgb(152,49,99)" stroke="rgb(152,49,99)" stroke-width="1" opacity="0.10196078431372549" d="M 33.5 0 L 38 0.5 L 33.5 1 L 33.5 0 Z " /><path fill="rgb(152,49,99)" stroke="rgb(152,49,99)" stroke-width="1" opacity="0.10196078431372549" d="M 42.5 0 L 48 0.5 L 42.5 1 L 42.5 0 Z " /><path fill="rgb(152,49,99)" stroke="rgb(152,49,99)" stroke-width="1" opacity="0.10196078431372549" d="M 49.5 1 L 52 1.5 L 49.5 2 L 49.5 1 Z " /><path fill="rgb(152,49,99)" stroke="rgb(152,49,99)" stroke-width="1" opacity="0.10196078431372549" d="M 53.5 2 L 57 3.5 L 55.5 4 L 53.5 2 Z " /><path fill="rgb(152,49,99)" stroke="rgb(152,49,99)" stroke-width="1" opacity="0.10196078431372549" d="M 21.5 4 L 23 4.5 L 20.5 6 L 21.5 4 Z " /><path fill="rgb(152,49,99)" stroke="rgb(152,49,99)" stroke-width="1" opacity="0.10196078431372549" d="M 60.5 5 L 61.5 7 L 60.5 5 Z " /><path fill="rgb(152,49,99)" stroke="rgb(152,49,99)" stroke-width="1" opacity="0.10196078431372549" d="M 18.5 6 L 17.5 8 L 18.5 6 Z " /><path fill="rgb(152,49,99)" stroke="rgb(152,49,99)" stroke-width="1" opacity="0.10196078431372549" d="M 63.5 7 L 70 12.5 L 73 16.5 L 69 13.5 L 67.5 11 L 63.5 7 Z " /><path fill="rgb(152,49,99)" stroke="rgb(152,49,99)" stroke-width="1" opacity="0.10196078431372549" d="M 15.5 8 L 9 15.5 L 5.5 21 L 6 19.5 L 13.5 9 L 15.5 8 Z " /><path fill="rgb(152,49,99)" stroke="rgb(152,49,99)" stroke-width="1" opacity="0.10196078431372549" d="M 73.5 18 L 74.5 20 L 73.5 18 Z " /><path fill="rgb(152,49,99)" stroke="rgb(152,49,99)" stroke-width="1" opacity="0.10196078431372549" d="M 169.5 24 L 170 28.5 L 169 28.5 L 169.5 24 Z " /><path fill="rgb(152,49,99)" stroke="rgb(152,49,99)" stroke-width="1" opacity="0.10196078431372549" d="M 276.5 24 L 278 24.5 L 278 31.5 L 277 31.5 Q 277.5 25.5 276.5 24 Z " /><path fill="rgb(152,49,99)" stroke="rgb(152,49,99)" stroke-width="1" opacity="0.10196078431372549" d="M 78.5 28 Q 82.4 33.6 81 44.5 L 78.5 51 L 78 49.5 Q 80.9 44.9 80 36.5 L 78.5 28 Z " /><path fill="rgb(152,49,99)" stroke="rgb(152,49,99)" stroke-width="1" opacity="0.10196078431372549" d="M 1.5 30 L 2 32.5 L 1 33.5 L 1 46.5 L 2 48.5 L 1 48.5 L 0 46.5 L 0 32.5 L 1.5 30 Z " /><path fill="rgb(152,49,99)" stroke="rgb(152,49,99)" stroke-width="1" opacity="0.10196078431372549" d="M 169.5 33 L 170 56.5 L 169 56.5 L 169.5 33 Z " /><path fill="rgb(152,49,99)" stroke="rgb(152,49,99)" stroke-width="1" opacity="0.10196078431372549" d="M 302.5 33 L 304.5 36 L 302.5 33 Z " /><path fill="rgb(152,49,99)" stroke="rgb(152,49,99)" stroke-width="1" opacity="0.10196078431372549" d="M 85.5 34 L 84.5 36 L 85.5 34 Z " /><path fill="rgb(152,49,99)" stroke="rgb(152,49,99)" stroke-width="1" opacity="0.10196078431372549" d="M 154.5 34 L 155.5 36 L 154.5 34 Z " /><path fill="rgb(152,49,99)" stroke="rgb(152,49,99)" stroke-width="1" opacity="0.10196078431372549" d="M 223.5 34 Q 225.8 33.3 225 35.5 L 223.5 34 Z " /><path fill="rgb(152,49,99)" stroke="rgb(152,49,99)" stroke-width="1" opacity="0.10196078431372549" d="M 312.5 34 L 311.5 36 L 312.5 34 Z " /><path fill="rgb(152,49,99)" stroke="rgb(152,49,99)" stroke-width="1" opacity="0.10196078431372549" d="M 109.5 35 L 109 36.5 L 108.5 38 L 108 36.5 L 109.5 35 Z " /><path fill="rgb(152,49,99)" stroke="rgb(152,49,99)" stroke-width="1" opacity="0.10196078431372549" d="M 127.5 35 L 128.5 37 L 127.5 35 Z " /><path fill="rgb(152,49,99)" stroke="rgb(152,49,99)" stroke-width="1" opacity="0.10196078431372549" d="M 121.5 37 L 122.5 39 L 121.5 37 Z " /><path fill="rgb(152,49,99)" stroke="rgb(152,49,99)" stroke-width="1" opacity="0.10196078431372549" d="M 257.5 37 L 258.5 39 L 257.5 37 Z " /><path fill="rgb(152,49,99)" stroke="rgb(152,49,99)" stroke-width="1" opacity="0.10196078431372549" d="M 291.5 38 L 290.5 40 L 291.5 38 Z " /><path fill="rgb(152,49,99)" stroke="rgb(152,49,99)" stroke-width="1" opacity="0.10196078431372549" d="M 277.5 39 L 278 49.5 L 277 49.5 L 277.5 39 Z " /><path fill="rgb(152,49,99)" stroke="rgb(152,49,99)" stroke-width="1" opacity="0.10196078431372549" d="M 108.5 41 L 110 43.5 L 109 43.5 L 108.5 41 Z " /><path fill="rgb(152,49,99)" stroke="rgb(152,49,99)" stroke-width="1" opacity="0.10196078431372549" d="M 310.5 41 L 311.5 43 L 310.5 41 Z " /><path fill="rgb(152,49,99)" stroke="rgb(152,49,99)" stroke-width="1" opacity="0.10196078431372549" d="M 128.5 45 L 129.5 47 L 128.5 45 Z " /><path fill="rgb(152,49,99)" stroke="rgb(152,49,99)" stroke-width="1" opacity="0.10196078431372549" d="M 299.5 45 L 300 46.5 L 298 47.5 L 299.5 45 Z " /><path fill="rgb(152,49,99)" stroke="rgb(152,49,99)" stroke-width="1" opacity="0.10196078431372549" d="M 330.5 45 Q 332.8 44.3 332 46.5 L 330.5 45 Z " /><path fill="rgb(152,49,99)" stroke="rgb(152,49,99)" stroke-width="1" opacity="0.10196078431372549" d="M 123.5 49 L 124 50.5 L 122 51.5 L 123.5 49 Z " /><path fill="rgb(152,49,99)" stroke="rgb(152,49,99)" stroke-width="1" opacity="0.10196078431372549" d="M 298.5 49 L 299 50.5 L 297 51.5 L 298.5 49 Z " /><path fill="rgb(152,49,99)" stroke="rgb(152,49,99)" stroke-width="1" opacity="0.10196078431372549" d="M 107.5 51 L 109.5 54 L 107.5 51 Z " /><path fill="rgb(152,49,99)" stroke="rgb(152,49,99)" stroke-width="1" opacity="0.10196078431372549" d="M 176.5 51 L 177.5 53 L 176.5 51 Z " /><path fill="rgb(152,49,99)" stroke="rgb(152,49,99)" stroke-width="1" opacity="0.10196078431372549" d="M 331.5 51 L 330.5 53 L 331.5 51 Z " /><path fill="rgb(152,49,99)" stroke="rgb(152,49,99)" stroke-width="1" opacity="0.10196078431372549" d="M 196.5 52 L 195.5 54 L 196.5 52 Z " /><path fill="rgb(152,49,99)" stroke="rgb(152,49,99)" stroke-width="1" opacity="0.10196078431372549" d="M 310.5 52 L 312.5 55 L 310.5 52 Z " /><path fill="rgb(152,49,99)" stroke="rgb(152,49,99)" stroke-width="1" opacity="0.10196078431372549" d="M 76.5 55 L 77 56.5 L 74.5 60 L 75 58.5 L 76.5 55 Z " /><path fill="rgb(152,49,99)" stroke="rgb(152,49,99)" stroke-width="1" opacity="0.10196078431372549" d="M 203.5 55 Q 205.8 54.3 205 56.5 L 203.5 55 Z " /><path fill="rgb(152,49,99)" stroke="rgb(152,49,99)" stroke-width="1" opacity="0.10196078431372549" d="M 4.5 56 L 7 60.5 L 5 59.5 L 4.5 56 Z " /><path fill="rgb(152,49,99)" stroke="rgb(152,49,99)" stroke-width="1" opacity="0.10196078431372549" d="M 73.5 61 L 72.5 63 L 73.5 61 Z " /><path fill="rgb(152,49,99)" stroke="rgb(152,49,99)" stroke-width="1" opacity="0.10196078431372549" d="M 7.5 62 L 14.5 70 L 18 72.5 L 15.5 71 L 9 65.5 L 7.5 62 Z " /><path fill="rgb(152,49,99)" stroke="rgb(152,49,99)" stroke-width="1" opacity="0.10196078431372549" d="M 71.5 64 L 69 67.5 L 66.5 71 L 64.5 72 L 71.5 64 Z " /><path fill="rgb(152,49,99)" stroke="rgb(152,49,99)" stroke-width="1" opacity="0.10196078431372549" d="M 62.5 72 L 61.5 74 L 62.5 72 Z " /><path fill="rgb(152,49,99)" stroke="rgb(152,49,99)" stroke-width="1" opacity="0.10196078431372549" d="M 19.5 73 L 23 75.5 L 21.5 75 L 19.5 73 Z " /><path fill="rgb(152,49,99)" stroke="rgb(152,49,99)" stroke-width="1" opacity="0.10196078431372549" d="M 24.5 76 L 29 77.5 L 26.5 78 L 24.5 76 Z " /><path fill="rgb(152,49,99)" stroke="rgb(152,49,99)" stroke-width="1" opacity="0.10196078431372549" d="M 30.5 78 L 37 79.5 L 32.5 80 L 30.5 78 Z " /><path fill="rgb(152,49,99)" stroke="rgb(152,49,99)" stroke-width="1" opacity="0.10196078431372549" d="M 48.5 78 L 51 78.5 L 43.5 80 L 43.5 79 L 48.5 78 Z " /><path fill="rgb(0,0,0)" stroke="rgb(0,0,0)" stroke-width="1" opacity="0" d="M 0 0 L 33 0.5 Q 19.8 2.8 12 10.5 Q 4 19 0.5 32 L 0 0 Z " /><path fill="rgb(0,0,0)" stroke="rgb(0,0,0)" stroke-width="1" opacity="0" d="M 48.5 0 L 331.5 0 L 332 0.5 L 332 45 L 324.5 41 L 317 40 L 318.5 37 L 323.5 37 L 324 39 L 330 39 L 329 34 L 325 33 L 324.5 31 L 317.5 31 L 311 35.5 L 310 41.5 L 312.5 45 L 322 47 L 322.5 49 L 325 48 L 323.5 52 Q 316.8 53.3 315.5 49 L 309.5 49 L 310 50.5 Q 309.5 55.5 313.5 56 Q 317.3 58.7 325.5 57 L 332 53 L 332 79.5 L 331.5 80 L 48.5 80 L 48.5 79 Q 61 76 69 68.5 L 76 58.5 L 78 51.5 L 80 49.5 L 81 34.5 Q 76.8 17.8 65.5 8 L 54.5 2 L 48.5 1 L 48.5 0 Z M 135 23 L 135 57 L 136 57 L 141 57 L 141 42 L 146 37 L 149 38 L 150 39 L 150 57 L 157 57 L 157 40 L 156 36 L 150 31 L 146 31 Q 147 34 145 33 L 141 36 L 141 23 L 135 23 Z M 163 23 L 163 29 L 170 29 L 170 23 L 163 23 Z M 232 23 L 232 29 L 239 29 L 239 23 L 232 23 Z M 277 24 L 273 27 Q 270 26 271 33 L 270 32 L 267 34 Q 265 40 271 38 L 271 53 L 272 55 L 275 57 L 282 57 Q 284 50 278 52 L 278 40 L 277 39 L 282 38 L 282 32 L 280 32 L 278 33 L 278 25 L 277 24 Z M 91 31 L 87 33 L 83 39 L 86 40 Q 90 41 89 38 L 92 37 L 96 38 Q 99 37 97 41 L 89 42 L 84 44 L 82 49 Q 82 55 87 57 L 96 56 L 98 55 L 98 57 L 104 57 L 103 53 L 103 37 L 102 35 Q 99 30 91 31 Z M 116 31 L 111 34 Q 107 35 108 43 L 123 50 L 122 52 Q 115 53 114 49 L 107 49 L 109 55 L 115 57 Q 124 59 128 55 L 130 52 L 129 45 Q 124 41 116 40 Q 113 39 116 37 Q 121 36 123 39 L 129 39 L 129 37 L 122 31 L 116 31 Z M 185 31 L 180 34 L 175 41 L 176 52 L 183 57 Q 190 59 194 56 L 199 49 Q 200 40 197 37 L 190 31 L 185 31 Z M 217 31 L 211 34 L 211 36 L 210 32 L 203 33 L 203 56 L 205 57 L 211 57 L 211 40 L 215 37 Q 219 37 219 40 L 219 57 L 226 57 L 226 37 L 225 34 L 220 31 L 217 31 Z M 252 31 L 248 33 Q 243 35 244 43 Q 247 47 255 47 L 259 50 L 258 52 L 252 52 Q 250 48 243 49 L 244 53 L 250 57 Q 258 59 262 56 L 265 52 L 264 45 L 261 42 L 253 40 Q 248 41 250 37 Q 257 35 259 39 L 264 39 L 264 37 L 257 31 L 252 31 Z M 294 31 L 290 33 L 285 39 L 289 40 Q 293 41 294 37 L 297 37 L 299 41 L 289 43 L 284 48 L 284 53 L 290 57 Q 297 58 300 54 L 300 56 Q 302 58 307 57 L 306 55 L 306 38 L 305 36 L 299 31 L 294 31 Z M 163 32 L 163 57 L 164 57 L 170 57 L 170 33 L 170 32 L 163 32 Z M 232 32 L 232 57 L 239 57 L 239 57 L 239 34 Q 237 31 232 32 Z " /><path fill="rgb(0,0,0)" stroke="rgb(0,0,0)" stroke-width="1" opacity="0" d="M 184.5 38 Q 190.8 36.8 192 40.5 L 193 45.5 L 191 51 L 185.5 52 L 182 49.5 L 181 42.5 L 182 39 L 184.5 38 Z " /><path fill="rgb(0,0,0)" stroke="rgb(0,0,0)" stroke-width="1" opacity="0" d="M 95.5 45 Q 98.9 44.1 97 49.5 Q 95.3 53.5 89 52 L 89 47 L 90.5 47 L 95.5 45 Z " /><path fill="rgb(0,0,0)" stroke="rgb(0,0,0)" stroke-width="1" opacity="0" d="M 297.5 45 Q 299.8 44.3 299 46.5 L 296.5 52 Q 292 53 291 50.5 Q 290.5 46.5 293.5 46 L 297.5 45 Z " /><path fill="rgb(0,0,0)" stroke="rgb(0,0,0)" stroke-width="1" opacity="0" d="M 0.5 47 Q 3.9 62.6 14.5 71 L 26.5 78 L 32 79.5 L 0 80 L 0.5 47 Z " /><path fill="rgb(174,21,107)" stroke="rgb(174,21,107)" stroke-width="1" opacity="0.9176470588235294" d="M 38.5 0 Q 59.1 0.9 69 12.5 Q 75 18.5 78 27.5 L 80 36.5 L 80 43.5 Q 76.6 62.6 63.5 72 Q 54 79.5 37.5 80 L 23.5 76 L 11 66.5 Q 4.9 60.1 2 50.5 Q -0.3 43.8 1 33.5 Q 4.4 16.4 16.5 8 L 25.5 3 L 38.5 0 Z M 33 2 L 18 9 Q 5 17 2 36 Q 1 54 10 64 Q 18 75 35 78 L 46 78 L 54 76 L 68 67 L 74 59 L 78 48 Q 80 36 77 29 L 70 16 Q 64 8 55 4 Q 46 0 33 2 Z " /><path fill="rgb(174,21,107)" stroke="rgb(174,21,107)" stroke-width="1" opacity="0.9176470588235294" d="M 34.5 7 L 46 7.5 L 34.5 8 L 34.5 7 Z " /><path fill="rgb(174,21,107)" stroke="rgb(174,21,107)" stroke-width="1" opacity="0.9176470588235294" d="M 30.5 8 L 33 8.5 L 30.5 9 L 30.5 8 Z " /><path fill="rgb(174,21,107)" stroke="rgb(174,21,107)" stroke-width="1" opacity="0.9176470588235294" d="M 56.5 11 L 57.5 13 L 56.5 11 Z " /><path fill="rgb(174,21,107)" stroke="rgb(174,21,107)" stroke-width="1" opacity="0.9176470588235294" d="M 22.5 12 L 21.5 14 L 22.5 12 Z " /><path fill="rgb(174,21,107)" stroke="rgb(174,21,107)" stroke-width="1" opacity="0.9176470588235294" d="M 42.5 13 L 53 13 L 53 19 L 45.5 19 L 44 20.5 L 43 29 L 51 29 L 51 34 L 43 34 L 43 68.5 Q 42.9 69.6 37.5 69 L 36 67.5 L 36 34 L 30 34 L 30 29 L 36 29 L 36 20.5 L 40.5 14 L 42.5 13 Z " /><path fill="rgb(174,21,107)" stroke="rgb(174,21,107)" stroke-width="1" opacity="0.9176470588235294" d="M 59.5 13 L 60.5 15 L 59.5 13 Z " /><path fill="rgb(174,21,107)" stroke="rgb(174,21,107)" stroke-width="1" opacity="0.9176470588235294" d="M 18.5 15 L 15.5 19 L 18.5 15 Z " /><path fill="rgb(174,21,107)" stroke="rgb(174,21,107)" stroke-width="1" opacity="0.9176470588235294" d="M 65.5 19 L 66.5 21 L 65.5 19 Z " /><path fill="rgb(174,21,107)" stroke="rgb(174,21,107)" stroke-width="1" opacity="0.9176470588235294" d="M 67.5 22 L 68.5 24 L 67.5 22 Z " /><path fill="rgb(174,21,107)" stroke="rgb(174,21,107)" stroke-width="1" opacity="0.9176470588235294" d="M 8.5 32 L 9 34.5 L 8 34.5 L 8.5 32 Z " /><path fill="rgb(174,21,107)" stroke="rgb(174,21,107)" stroke-width="1" opacity="0.9176470588235294" d="M 72.5 34 L 73 45.5 L 72 45.5 L 72.5 34 Z " /><path fill="rgb(174,21,107)" stroke="rgb(174,21,107)" stroke-width="1" opacity="0.9176470588235294" d="M 7.5 37 L 8 41.5 L 7 41.5 L 7.5 37 Z " /><path fill="rgb(174,21,107)" stroke="rgb(174,21,107)" stroke-width="1" opacity="0.9176470588235294" d="M 8.5 45 L 9 47.5 L 8 47.5 L 8.5 45 Z " /><path fill="rgb(174,21,107)" stroke="rgb(174,21,107)" stroke-width="1" opacity="0.9176470588235294" d="M 71.5 47 L 72 49.5 L 71 49.5 L 71.5 47 Z " /><path fill="rgb(174,21,107)" stroke="rgb(174,21,107)" stroke-width="1" opacity="0.9176470588235294" d="M 70.5 51 L 71 52.5 L 68.5 56 L 69 54.5 L 70.5 51 Z " /><path fill="rgb(174,21,107)" stroke="rgb(174,21,107)" stroke-width="1" opacity="0.9176470588235294" d="M 11.5 54 L 13 56.5 L 11 55.5 L 11.5 54 Z " /><path fill="rgb(174,21,107)" stroke="rgb(174,21,107)" stroke-width="1" opacity="0.9176470588235294" d="M 13.5 58 L 14.5 60 L 13.5 58 Z " /><path fill="rgb(174,21,107)" stroke="rgb(174,21,107)" stroke-width="1" opacity="0.9176470588235294" d="M 65.5 60 L 60.5 66 L 65.5 60 Z " /><path fill="rgb(174,21,107)" stroke="rgb(174,21,107)" stroke-width="1" opacity="0.9176470588235294" d="M 20.5 65 L 21.5 67 L 20.5 65 Z " /><path fill="rgb(174,21,107)" stroke="rgb(174,21,107)" stroke-width="1" opacity="0.9176470588235294" d="M 23.5 67 L 24.5 69 L 23.5 67 Z " /><path fill="rgb(174,21,107)" stroke="rgb(174,21,107)" stroke-width="1" opacity="0.9176470588235294" d="M 46.5 71 L 49 71.5 L 46.5 72 L 46.5 71 Z " /><path fill="rgb(174,21,107)" stroke="rgb(174,21,107)" stroke-width="1" opacity="0.9176470588235294" d="M 37.5 72 L 43 72.5 L 37.5 73 L 37.5 72 Z " /><path fill="rgb(4,4,4)" stroke="rgb(4,4,4)" stroke-width="1" opacity="1" d="M 33.5 8 L 47.5 8 Q 58.6 10.9 65 18.5 L 72 32.5 L 72 46.5 Q 68.8 60.3 58.5 67 L 45.5 72 L 34.5 72 Q 21.7 69.3 15 60.5 Q 7.3 52.2 8 35.5 Q 10.5 21 20.5 14 L 33.5 8 Z M 43 13 L 41 14 L 36 21 L 36 29 L 30 29 L 30 34 L 36 34 L 36 68 L 38 69 Q 43 70 43 69 L 43 34 L 51 34 L 51 29 L 43 29 L 44 21 L 46 19 L 53 19 L 53 13 L 43 13 Z " /><path fill="rgb(253,249,252)" stroke="rgb(253,249,252)" stroke-width="1" opacity="0.9215686274509803" d="M 32.5 2 Q 46.2 0.3 54.5 4 Q 63.9 8.1 70 15.5 L 77 28.5 Q 79.5 36 78 47.5 L 74 58.5 L 68 67 L 53.5 76 L 45.5 78 L 34.5 78 Q 18.2 74.8 10 63.5 Q 1.2 54.3 2 35.5 Q 5 17.5 17.5 9 L 32.5 2 Z M 34 7 L 20 14 Q 9 21 7 36 Q 7 54 16 63 Q 23 70 36 73 Q 52 74 60 67 Q 69 60 73 47 Q 75 30 68 22 Q 62 12 51 8 Q 44 5 34 7 Z " /><path fill="rgb(253,249,252)" stroke="rgb(253,249,252)" stroke-width="1" opacity="0.9215686274509803" d="M 136 23 L 140 23 L 140 24.5 L 141 25.5 L 141 34.5 L 140 37 L 146.5 33 L 151.5 33 Q 155.8 35.8 157 41.5 L 157 55 L 152.5 56 L 150 55 L 150 43.5 L 152 41.5 L 151 37 L 144.5 36 L 142 37 L 142.5 39 L 144 38.5 L 141 39.5 L 140 42.5 L 141 43.5 L 141 55 L 136 56 L 136 23 Z " /><path fill="rgb(253,249,252)" stroke="rgb(253,249,252)" stroke-width="1" opacity="0.9215686274509803" d="M 165 23 Q 168.8 21.5 168 24.5 L 169 27.5 L 165.5 29 L 164 25.5 L 165 23 Z " /><path fill="rgb(253,249,252)" stroke="rgb(253,249,252)" stroke-width="1" opacity="0.9215686274509803" d="M 232 23 L 239 23 L 239 29 L 232 29 L 232 23 Z " /><path fill="rgb(253,249,252)" stroke="rgb(253,249,252)" stroke-width="1" opacity="0.9215686274509803" d="M 275.5 26 L 276 33 L 281.5 32 L 282 34.5 Q 283.8 39.8 278.5 38 L 276 37 L 276 50.5 L 277.5 52 L 281 53.5 L 279.5 56 L 277.5 57 L 272 53.5 L 271 38 Q 267.3 39.4 269 33.5 L 268.5 32 L 271.5 33 L 271 31.5 Q 270.5 27.5 273.5 27 L 275.5 26 Z " /><path fill="rgb(253,249,252)" stroke="rgb(253,249,252)" stroke-width="1" opacity="0.9215686274509803" d="M 90.5 31 L 94 31.5 L 90.5 32 L 90.5 31 Z " /><path fill="rgb(253,249,252)" stroke="rgb(253,249,252)" stroke-width="1" opacity="0.9215686274509803" d="M 115.5 31 L 119 31.5 L 115.5 32 L 115.5 31 Z " /><path fill="rgb(253,249,252)" stroke="rgb(253,249,252)" stroke-width="1" opacity="0.9215686274509803" d="M 146.5 31 L 150 31.5 L 146.5 32 L 146.5 31 Z " /><path fill="rgb(253,249,252)" stroke="rgb(253,249,252)" stroke-width="1" opacity="0.9215686274509803" d="M 184.5 31 Q 189.8 29.8 191 32.5 Q 190.3 34.8 192.5 34 L 194 33.5 L 193 34.5 L 197 38.5 L 198 47.5 L 192.5 55 L 186.5 57 L 178 52.5 Q 174.2 49.3 176 40.5 L 181.5 34 L 190 32.5 L 184.5 32 L 184.5 31 Z M 186 36 L 184 37 L 184 39 L 183 38 L 180 42 L 181 50 Q 183 53 188 53 L 189 51 L 191 52 L 193 50 L 194 46 L 193 40 Q 192 35 186 36 Z " /><path fill="rgb(253,249,252)" stroke="rgb(253,249,252)" stroke-width="1" opacity="0.9215686274509803" d="M 216.5 31 L 220 31.5 L 216.5 32 L 216.5 31 Z " /><path fill="rgb(253,249,252)" stroke="rgb(253,249,252)" stroke-width="1" opacity="0.9215686274509803" d="M 251.5 31 L 257 31.5 L 251.5 32 L 251.5 31 Z " /><path fill="rgb(253,249,252)" stroke="rgb(253,249,252)" stroke-width="1" opacity="0.9215686274509803" d="M 294.5 31 L 299 31.5 L 294.5 32 L 294.5 31 Z " /><path fill="rgb(253,249,252)" stroke="rgb(253,249,252)" stroke-width="1" opacity="0.9215686274509803" d="M 317.5 31 L 325 31.5 L 317.5 32 L 317.5 31 Z " /><path fill="rgb(253,249,252)" stroke="rgb(253,249,252)" stroke-width="1" opacity="0.9215686274509803" d="M 98.5 32 L 98.5 34 L 102 36.5 L 102 53.5 L 103 56 L 100.5 56 L 96.5 53 L 90.5 57 L 84 53.5 L 82 49.5 L 85.5 45 L 98 42 Q 99 37.3 95.5 36 Q 88.8 34.8 87.5 39 L 85 38 L 87.5 34 L 98.5 32 Z M 96 44 L 90 46 L 87 49 L 90 53 Q 95 54 97 52 L 98 50 L 98 44 L 96 44 Z " /><path fill="rgb(253,249,252)" stroke="rgb(253,249,252)" stroke-width="1" opacity="0.9215686274509803" d="M 165 32 L 170 32.5 L 168 33.5 L 169 34.5 L 169 54.5 L 165.5 56 L 164 54.5 L 164 34.5 L 165 32 Z " /><path fill="rgb(253,249,252)" stroke="rgb(253,249,252)" stroke-width="1" opacity="0.9215686274509803" d="M 205 32 L 210 32.5 L 209 37.5 L 213.5 34 L 220.5 33 L 224 35.5 L 225 38.5 L 225 54.5 L 221.5 56 L 220 54.5 L 220 44.5 L 220 42.5 Q 221 37 217.5 36 L 213.5 36 L 210 38 L 209 56 L 205 55.5 L 205 32 Z " /><path fill="rgb(253,249,252)" stroke="rgb(253,249,252)" stroke-width="1" opacity="0.9215686274509803" d="M 232.5 32 Q 238.6 30.8 238 33.5 L 239 34.5 L 239 55 L 234.5 56 L 232 55 L 232 34.5 L 233 33.5 L 232.5 32 Z " /><path fill="rgb(253,249,252)" stroke="rgb(253,249,252)" stroke-width="1" opacity="0.9215686274509803" d="M 249.5 32 Q 251.3 34.8 257.5 33 L 259 32.5 Q 258.3 34.8 260.5 34 L 262 38 L 256.5 36 L 250.5 36 L 249 39.5 Q 252.2 43.3 259.5 43 L 264 46.5 Q 265.3 53.8 260.5 55 L 253.5 57 L 246 54 L 244 50.5 L 248.5 50 Q 250 54.5 257.5 53 Q 260.8 51.8 260 48 L 248.5 45 L 245 41.5 Q 244.2 35.7 247.5 34 Q 250 34.7 249.5 32 Z " /><path fill="rgb(253,249,252)" stroke="rgb(253,249,252)" stroke-width="1" opacity="0.9215686274509803" d="M 114.5 33 Q 124.3 31.3 127 36.5 Q 127.9 39.5 123.5 38 Q 121.8 34.3 114.5 36 L 113 39.5 Q 116.2 43.3 123.5 43 L 128 46.5 Q 127.3 49.1 130 48 L 130 50 Q 127.3 48.9 128 51.5 Q 125.1 56.1 118.5 57 Q 111.9 56.1 109 51.5 Q 108.1 48.5 112.5 50 Q 114.4 54.1 121.5 53 L 124 52 Q 125 48.2 122.5 47 L 112.5 45 L 110 42.5 L 109 37.5 L 114.5 33 Z " /><path fill="rgb(253,249,252)" stroke="rgb(253,249,252)" stroke-width="1" opacity="0.9215686274509803" d="M 291.5 33 Q 301.8 30.8 304 36.5 L 305 39.5 L 304 42 Q 307 40.8 306 44.5 Q 302.5 46 304 52.5 L 305 56 L 301 54.5 Q 301.8 52.3 299.5 53 L 292.5 57 L 285.5 52 L 284 52.5 L 285 48.5 L 284.5 47 L 286 47.5 L 287.5 45 L 300 42 L 300 37 L 298.5 37 Q 297.3 34.8 292.5 36 L 289.5 39 L 288.5 38 Q 286.3 38.8 287 36.5 L 291.5 33 Z M 299 44 L 292 46 Q 289 47 290 52 L 293 53 Q 299 54 300 51 Q 302 43 299 44 Z " /><path fill="rgb(253,249,252)" stroke="rgb(253,249,252)" stroke-width="1" opacity="0.9215686274509803" d="M 316.5 33 Q 326.3 31.3 329 36.5 Q 329.9 39.5 325.5 38 L 323.5 36 L 316 36 L 315 38.5 L 316 41 L 330 45 L 331 50.5 L 328.5 54 L 320.5 57 Q 313.9 56.1 311 51.5 L 311 50 L 316 50 Q 314.9 52.7 317.5 52 Q 319 54.5 324.5 53 Q 326.8 52.3 326 48.5 L 324.5 47 L 315.5 45 L 314 45.5 L 313.5 44 Q 312.3 46.3 311 43.5 L 312 40.5 L 312 38.5 Q 311.5 34.5 314.5 34 L 316.5 33 Z " /><path fill="rgb(253,249,252)" stroke="rgb(253,249,252)" stroke-width="1" opacity="0.9215686274509803" d="M 127.5 43 L 128.5 45 L 127.5 43 Z " /></svg>