<?xml version="1.0" standalone="no"?>
<!DOCTYPE svg PUBLIC "-//W3C//DTD SVG 20010904//EN"
 "http://www.w3.org/TR/2001/REC-SVG-20010904/DTD/svg10.dtd">
<svg version="1.0" xmlns="http://www.w3.org/2000/svg"
 width="525.000000pt" height="126.000000pt" viewBox="0 0 525.000000 126.000000"
 preserveAspectRatio="xMidYMid meet">

<g transform="translate(0.000000,126.000000) scale(0.100000,-0.100000)"
fill="#000000" stroke="none">
<path d="M0 630 l0 -630 2625 0 2625 0 0 630 0 630 -2625 0 -2625 0 0 -630z
m717 559 c279 -38 488 -258 510 -535 13 -175 -46 -335 -171 -458 -82 -82 -162
-128 -272 -156 -98 -25 -180 -25 -278 0 -267 68 -446 295 -446 563 0 110 18
186 65 276 88 167 253 283 440 310 33 5 63 9 67 10 4 0 42 -4 85 -10z m1483
-436 l0 -96 23 20 c50 46 104 55 157 28 47 -24 54 -48 58 -202 l4 -143 -41 0
-41 0 0 108 c0 111 -10 170 -32 184 -7 4 -30 8 -50 8 -28 0 -42 -6 -57 -26
-19 -24 -21 -40 -21 -150 l0 -124 -40 0 -40 0 0 245 0 245 40 0 40 0 0 -97z
m430 62 c0 -33 -2 -35 -35 -35 -35 0 -37 2 -37 40 0 30 0 30 37 30 33 0 35 -2
35 -35z m1070 0 c0 -34 -1 -35 -40 -35 -39 0 -40 1 -40 35 0 34 1 35 40 35 39
0 40 -1 40 -35z m600 -45 l0 -60 36 0 c33 0 35 -2 32 -27 -2 -23 -8 -29 -36
-31 l-33 -3 3 -112 3 -112 33 -3 c28 -3 32 -7 32 -31 0 -24 -5 -30 -30 -34
-16 -4 -44 -4 -60 0 -52 10 -60 33 -60 170 0 119 -1 122 -22 125 -17 2 -24 11
-26 31 -3 23 0 27 22 27 24 0 26 4 26 39 0 33 5 42 33 60 17 11 35 21 40 21 4
0 7 -27 7 -60z m-2744 -66 c44 -21 53 -54 56 -217 l3 -127 -33 0 c-26 0 -35 5
-39 20 -3 12 -8 19 -12 17 -101 -55 -163 -57 -206 -5 -28 34 -32 66 -10 108
15 29 52 45 163 70 55 13 64 28 42 71 -16 29 -105 27 -121 -2 -9 -17 -17 -20
-42 -15 -17 3 -33 8 -35 11 -10 10 31 57 61 70 44 19 132 18 173 -1z m378 2
c41 -17 72 -56 53 -68 -21 -13 -60 -9 -80 10 -25 22 -100 23 -122 1 -28 -28
-7 -46 78 -69 134 -36 147 -47 147 -119 0 -101 -186 -148 -276 -69 -42 37 -43
54 -3 63 24 6 34 2 54 -19 31 -34 112 -37 139 -7 28 31 7 51 -75 76 -115 34
-126 40 -139 79 -15 47 6 96 51 119 42 20 128 22 173 3z m1082 -22 c51 -41 74
-88 74 -149 0 -56 -29 -116 -71 -147 -51 -38 -138 -44 -199 -13 -95 48 -120
199 -47 282 43 49 80 64 149 60 46 -3 65 -9 94 -33z m433 22 c43 -23 51 -54
51 -206 l0 -140 -40 0 -40 0 0 133 c0 155 -8 171 -76 165 -63 -5 -77 -36 -81
-176 l-3 -117 -35 -3 -35 -3 0 175 0 176 35 0 c33 0 35 -2 35 -32 l0 -32 28
26 c54 50 107 62 161 34z m587 -2 c36 -17 59 -48 49 -64 -10 -16 -57 -11 -78
8 -24 21 -114 23 -128 1 -19 -30 -2 -43 95 -74 109 -35 136 -57 136 -110 0
-52 -40 -91 -105 -105 -84 -17 -155 2 -197 54 -24 29 -23 33 16 40 28 5 39 2
60 -19 44 -44 146 -30 146 20 0 21 -8 27 -57 40 -143 39 -173 60 -173 120 0
39 24 73 64 91 43 18 131 17 172 -2z m638 2 c19 -8 37 -20 42 -27 5 -8 12 -75
15 -149 3 -74 9 -143 13 -152 7 -16 2 -18 -32 -18 -35 0 -41 3 -46 26 l-7 27
-23 -22 c-34 -32 -87 -44 -135 -31 -46 12 -71 45 -71 94 0 56 32 82 130 106
46 11 88 24 93 29 5 5 3 21 -5 38 -11 23 -20 29 -57 31 -34 3 -49 -2 -66 -18
-18 -17 -30 -20 -54 -15 -31 6 -31 7 -15 37 8 16 30 36 47 43 42 18 129 19
171 1z m390 -1 c34 -16 60 -50 51 -65 -9 -15 -61 -12 -75 5 -16 19 -67 28
-105 17 -23 -6 -30 -14 -30 -32 0 -26 16 -34 129 -65 79 -22 110 -54 103 -106
-9 -72 -57 -103 -157 -103 -73 0 -117 18 -144 58 -21 34 -21 34 18 41 27 6 38
2 59 -19 45 -45 147 -32 147 19 0 21 -8 27 -57 40 -143 39 -173 60 -173 120 0
39 24 73 64 91 42 18 131 18 170 -1z m-2434 -171 l0 -175 -35 3 c-20 2 -35 6
-35 11 0 4 0 81 0 172 l0 165 35 0 35 0 0 -176z m1070 1 l0 -175 -40 0 -40 0
0 175 0 175 40 0 40 0 0 -175z"/>
<path d="M509 1091 c-251 -68 -411 -329 -358 -583 38 -181 187 -340 360 -384
47 -12 92 -15 166 -12 96 4 109 7 187 46 196 97 308 306 278 515 -44 304 -338
498 -633 418z"/>
<path d="M1480 529 c-64 -18 -89 -31 -95 -50 -16 -51 33 -88 91 -69 19 7 39
20 44 30 12 22 14 100 3 99 -5 0 -24 -5 -43 -10z"/>
<path d="M2862 644 c-74 -51 -67 -186 11 -219 63 -26 119 8 133 82 19 102 -71
188 -144 137z"/>
<path d="M4591 524 c-70 -19 -83 -30 -79 -68 4 -44 44 -62 91 -42 19 8 37 18
40 22 10 17 19 104 11 103 -5 0 -33 -7 -63 -15z"/>
</g>
</svg>
