<svg version="1.1" id="Layer_1" xmlns="http://www.w3.org/2000/svg" xmlns:xlink="http://www.w3.org/1999/xlink" x="0px" y="0px"
	 width="100%" viewBox="0 0 504 140" enable-background="new 0 0 504 140" xml:space="preserve">
<path fill="#040002" opacity="1.000000" stroke="none" 
	d="
M327.000000,141.000000 
	C218.000015,141.000000 109.500038,141.000000 1.000044,141.000000 
	C1.000029,94.333359 1.000029,47.666721 1.000015,1.000062 
	C168.999939,1.000042 336.999878,1.000042 504.999878,1.000021 
	C504.999908,47.666599 504.999908,94.333199 504.999939,140.999908 
	C445.833344,141.000000 386.666656,141.000000 327.000000,141.000000 
M131.507446,77.555603 
	C131.506393,72.693840 131.747177,67.817421 131.453629,62.973381 
	C130.854309,53.083916 127.399826,43.892868 121.552055,36.176552 
	C105.874016,15.488832 85.212822,6.238063 59.130993,11.484999 
	C30.015263,17.342272 11.313636,41.315376 10.696252,69.857613 
	C10.300445,88.156181 17.307959,103.977173 31.535273,116.148148 
	C47.156933,129.511932 64.822029,134.196869 85.092438,129.804611 
	C99.358009,126.713501 110.399025,118.800323 119.426315,107.986305 
	C126.460945,99.559341 130.397858,89.491783 131.507446,77.555603 
M141.925049,77.562515 
	C137.901810,84.389450 139.862503,90.098053 143.533905,93.555031 
	C145.661118,95.558014 149.492172,97.079987 152.302765,96.737366 
	C157.327271,96.124878 162.159927,93.938545 166.934799,92.453094 
	C168.240280,98.530060 173.642838,95.276123 177.770859,95.937508 
	C177.770859,93.788162 177.770859,92.041908 177.770859,90.348000 
	C176.358948,90.043800 175.171967,89.788055 173.996002,89.534683 
	C173.996002,81.539215 174.016632,73.892815 173.988770,66.246597 
	C173.970108,61.124580 171.832336,56.924431 166.869263,55.547962 
	C162.549683,54.349960 157.799026,53.769508 153.353134,54.173584 
	C145.855530,54.855026 141.570099,60.733963 142.488892,67.820526 
	C144.585663,67.820526 146.692368,67.820526 148.797516,67.820526 
	C150.212326,62.555367 153.335831,60.442616 158.791428,60.873196 
	C162.744110,61.185158 165.804321,62.083626 165.918488,66.420013 
	C166.044983,71.223686 162.155884,70.666245 158.909180,71.051819 
	C152.908600,71.764420 146.545547,71.602371 141.925049,77.562515 
M432.524170,96.995705 
	C437.196869,95.527596 441.869568,94.059486 446.721649,92.535019 
	C448.634094,98.139252 453.589050,95.478310 457.799438,95.955490 
	C457.799438,93.799759 457.799438,92.042404 457.799438,90.022072 
	C453.766388,90.585114 452.971161,88.237007 452.986176,85.077240 
	C453.018585,78.257584 452.691376,71.419662 453.093018,64.623596 
	C453.411377,59.237450 450.218048,56.545242 446.152771,55.264282 
	C442.362122,54.069881 437.999084,53.624462 434.071625,54.170399 
	C427.386627,55.099655 420.552277,58.041470 422.455353,67.833290 
	C424.536652,67.833290 426.646912,67.833290 428.738556,67.833290 
	C429.527039,60.884262 434.629974,59.518356 442.258301,62.022030 
	C443.913422,62.565239 445.654633,65.514122 445.682678,67.380173 
	C445.700470,68.563698 442.775757,70.402733 440.902405,70.868362 
	C437.616882,71.684975 434.085938,71.454033 430.729553,72.059723 
	C425.943176,72.923470 421.546570,74.857742 420.112549,80.011055 
	C418.330475,86.415176 420.661011,92.384262 425.789062,95.156631 
	C427.564606,96.116547 429.705322,96.401009 432.524170,96.995705 
M224.996063,83.489304 
	C224.996078,79.656395 224.906830,75.820885 225.018570,71.991234 
	C225.160461,67.127899 227.199585,63.441437 231.927551,61.537151 
	C235.696945,60.018940 241.212097,61.797913 241.926300,65.058723 
	C242.548370,67.898842 242.897339,70.845001 242.957474,73.752777 
	C243.101334,80.708984 243.003937,87.670189 243.003937,94.803772 
	C245.470535,94.803772 247.538498,94.803772 249.991440,94.803772 
	C249.991440,84.324181 250.286316,74.019089 249.840698,63.746120 
	C249.671585,59.847961 247.253296,56.468166 243.086884,55.029392 
	C236.668076,52.812805 230.719009,53.934536 224.772949,58.307369 
	C224.772949,51.730186 224.772949,45.965012 224.772949,40.286541 
	C222.033737,40.286541 219.627853,40.286541 217.003937,40.286541 
	C217.003937,49.544098 217.003937,58.521027 217.003937,67.497955 
	C217.003937,76.603806 217.003937,85.709648 217.003937,94.706116 
	C219.979477,94.706116 222.385849,94.706116 224.996063,94.706116 
	C224.996063,91.107101 224.996063,87.793915 224.996063,83.489304 
M306.995941,76.289841 
	C306.663361,73.556190 306.214050,70.830696 306.022247,68.087196 
	C305.611237,62.206726 301.236603,56.122391 293.484497,54.399426 
	C286.697357,52.890934 279.703400,53.477909 274.572266,59.828972 
	C269.131287,66.563507 268.349731,73.965233 269.943054,82.133484 
	C271.219360,88.676704 274.624786,93.655266 280.755890,95.744370 
	C287.562958,98.063805 294.422363,97.494354 300.195892,92.313728 
	C304.703217,88.269279 305.758301,82.691582 306.995941,76.289841 
M179.011246,83.329262 
	C180.570114,96.048790 190.654327,98.395882 200.739960,96.559044 
	C209.468567,94.969345 213.174423,89.935585 212.996017,82.303696 
	C212.861084,76.531181 209.971451,74.241684 200.487869,71.959518 
	C197.081284,71.139732 193.602417,70.234741 190.484955,68.701088 
	C186.954819,66.964432 187.249146,63.536629 190.740952,61.757725 
	C196.227936,58.962372 202.509460,61.260174 204.638870,66.677338 
	C207.120529,66.677338 209.517242,66.677338 212.062775,66.677338 
	C211.201508,60.856602 208.939224,56.290947 203.122818,55.098907 
	C199.020142,54.258080 194.587280,53.700909 190.513702,54.348911 
	C184.006027,55.384121 180.040146,60.771976 180.004059,66.943092 
	C179.974762,71.952408 183.612091,75.295853 190.644852,77.035652 
	C194.372375,77.957779 198.109024,78.978447 201.661896,80.402771 
	C203.031799,80.951958 204.774292,82.734215 204.786957,83.970657 
	C204.803589,85.593071 203.692963,87.845024 202.344162,88.757629 
	C196.155029,92.945160 187.973770,89.435791 186.374130,81.846901 
	C183.988785,82.046822 181.544281,82.251701 179.011246,83.329262 
M382.343994,90.003952 
	C375.354675,89.988930 372.643036,88.041283 371.525238,82.197464 
	C369.078125,82.197464 366.625214,82.197464 364.012787,82.197464 
	C364.445038,87.281517 365.782166,92.010300 370.153381,94.470406 
	C375.510345,97.485291 381.444244,97.741447 387.544189,96.069778 
	C393.694916,94.384193 397.750275,90.509865 397.996002,85.172646 
	C398.346405,77.560486 396.840271,75.478310 389.059113,72.993210 
	C384.813873,71.637383 380.462128,70.565842 376.330383,68.931480 
	C374.949829,68.385391 373.149384,66.405876 373.254089,65.234764 
	C373.383392,63.787796 375.033173,61.973927 376.490082,61.240406 
	C381.336700,58.800293 387.745941,61.690079 389.600403,66.718651 
	C392.075073,66.718651 394.490387,66.718651 397.172302,66.718651 
	C396.937347,65.290749 396.945770,64.100815 396.540588,63.074062 
	C393.017639,54.145752 380.154694,50.907974 371.254730,56.065292 
	C366.366760,58.897755 365.264069,63.249268 365.184814,67.839989 
	C365.106384,72.383919 369.337097,75.724731 375.041351,76.998238 
	C378.016296,77.662415 381.196564,77.892982 383.899902,79.147408 
	C386.474579,80.342148 390.460968,82.641525 390.435150,84.405647 
	C390.385742,87.784935 387.152588,90.063766 382.343994,90.003952 
M473.707825,54.003963 
	C466.081390,54.504414 460.874420,58.523907 460.010712,64.577362 
	C459.111206,70.882126 461.928619,74.320557 470.261169,77.028496 
	C474.353973,78.358574 478.473816,79.606125 482.559479,80.957390 
	C486.291840,82.191818 485.595001,85.013199 484.135010,87.225296 
	C481.308167,91.508469 470.230530,91.041405 467.954346,86.404167 
	C465.951691,82.324127 463.474182,80.863945 458.119812,82.844376 
	C459.516785,85.858040 460.512360,89.042870 462.309387,91.681992 
	C467.107117,98.728065 481.315643,98.265167 486.924408,94.390060 
	C491.067596,91.527519 493.834045,87.222519 492.936737,81.771828 
	C492.127838,76.858406 488.989441,73.994263 484.050842,72.950096 
	C480.145599,72.124397 476.134705,71.388573 472.506622,69.830544 
	C470.627533,69.023598 469.477936,66.517899 467.998749,64.779640 
	C469.633545,63.518887 471.158417,61.386627 472.924103,61.163979 
	C477.839386,60.544170 483.076263,60.271553 484.258148,66.846397 
	C486.669037,66.846397 488.631256,66.846397 491.948517,66.846397 
	C490.562195,63.768414 489.852570,60.996735 488.257233,58.898487 
	C484.876343,54.451908 479.839172,53.752121 473.707825,54.003963 
M319.996094,89.391151 
	C319.996124,82.899216 319.919617,76.406067 320.021637,69.915741 
	C320.096039,65.183060 325.087006,60.906139 330.181702,60.996162 
	C334.780731,61.077427 336.996185,63.844090 337.001770,69.550789 
	C337.010040,77.978874 337.003906,86.406975 337.003906,94.700256 
	C339.996582,94.700256 342.399109,94.700256 344.995575,94.700256 
	C344.995575,84.770638 345.130676,75.132767 344.945099,65.501068 
	C344.833160,59.690311 342.251251,56.827854 336.867432,54.918415 
	C330.206848,52.556160 324.560120,54.471577 319.271271,58.914661 
	C319.027252,57.402470 318.838562,56.233086 318.664429,55.154053 
	C316.337280,55.154053 314.383789,55.154053 312.327209,55.154053 
	C312.327209,68.505852 312.327209,81.705284 312.327209,94.849121 
	C314.943298,94.849121 317.234924,94.849121 319.996094,94.849121 
	C319.996094,93.273819 319.996094,91.819344 319.996094,89.391151 
M410.996094,50.444283 
	C410.996094,48.343521 410.996094,46.242760 410.996094,44.311298 
	C408.321625,44.311298 406.250671,44.311298 403.805878,44.311298 
	C403.805878,48.042957 403.805878,51.468967 403.805878,54.827312 
	C401.656525,54.992126 399.894623,55.127228 397.956421,55.275848 
	C398.049988,57.353188 398.128693,59.101086 398.205811,60.813339 
	C400.344238,60.977272 402.087311,61.110893 403.895752,61.249527 
	C403.942261,62.242496 403.998810,62.893059 403.999268,63.543663 
	C404.005615,72.209602 403.873505,80.878250 404.052948,89.540482 
	C404.162354,94.821434 407.842712,96.879585 414.939972,95.988205 
	C420.059357,95.345238 417.297668,91.721169 417.132050,89.872704 
	C414.756531,88.775429 411.371765,87.421684 411.268402,85.851807 
	C410.726196,77.619690 411.014893,69.332840 411.014893,60.720757 
	C413.722717,60.720757 415.812164,60.720757 418.062317,60.720757 
	C417.959747,58.604172 417.875122,56.858009 417.781921,54.934986 
	C415.391144,54.934986 413.433441,54.934986 411.170319,54.934986 
	C411.106171,53.630764 411.051147,52.511944 410.996094,50.444283 
M259.577515,55.004322 
	C256.592285,54.527554 256.994446,56.588272 256.997955,58.404518 
	C257.012421,65.864388 257.003906,73.324295 257.003906,80.784187 
	C257.003876,85.509605 257.003906,90.235023 257.003906,94.828430 
	C260.003662,94.828430 262.283997,94.828430 264.719482,94.828430 
	C264.719482,81.508408 264.719482,68.357246 264.719482,55.003990 
	C263.139008,55.003990 261.834015,55.003990 259.577515,55.004322 
M359.996094,73.500443 
	C359.996094,67.395836 359.996094,61.291225 359.996094,55.290413 
	C357.022705,55.290413 354.619568,55.290413 352.003906,55.290413 
	C352.003906,62.050194 352.003906,68.525215 352.003906,75.000229 
	C352.003906,81.604965 352.003906,88.209702 352.003906,94.709656 
	C354.974579,94.709656 357.380066,94.709656 359.996094,94.709656 
	C359.996094,87.783363 359.996094,81.141792 359.996094,73.500443 
M353.655121,48.991932 
	C355.714844,48.991932 357.774567,48.991932 359.735291,48.991932 
	C359.735291,45.666367 359.735291,42.951847 359.735291,40.227638 
	C357.086945,40.227638 354.704987,40.227638 351.711792,40.227638 
	C352.066132,43.304585 352.390564,46.121574 353.655121,48.991932 
M264.940430,40.741985 
	C262.353912,40.445469 259.767395,40.148949 257.292847,39.865269 
	C257.292847,43.392715 257.292847,46.108715 257.292847,48.743488 
	C259.971924,48.743488 262.355499,48.743488 264.992126,48.743488 
	C264.992126,46.223839 264.992126,43.953629 264.940430,40.741985 
z"/>
<path fill="#FAEFF5" opacity="1.000000" stroke="none" 
	d="
M131.504349,78.003395 
	C130.397858,89.491783 126.460945,99.559341 119.426315,107.986305 
	C110.399025,118.800323 99.358009,126.713501 85.092438,129.804611 
	C64.822029,134.196869 47.156933,129.511932 31.535273,116.148148 
	C17.307959,103.977173 10.300445,88.156181 10.696252,69.857613 
	C11.313636,41.315376 30.015263,17.342272 59.130993,11.484999 
	C85.212822,6.238063 105.874016,15.488832 121.552055,36.176552 
	C127.399826,43.892868 130.854309,53.083916 131.453629,62.973381 
	C131.747177,67.817421 131.506393,72.693840 131.504349,78.003395 
M116.461205,48.178131 
	C106.004616,28.529774 87.044716,18.395269 65.317635,20.840706 
	C39.606106,23.734606 20.068539,46.672543 21.163969,72.678993 
	C22.278463,99.138077 44.118916,120.589325 70.306808,120.946106 
	C108.108002,121.461105 132.157471,84.190155 116.461205,48.178131 
z"/>
<path fill="#FFFFFF" opacity="1.000000" stroke="none" 
	d="
M141.976166,77.164139 
	C146.545547,71.602371 152.908600,71.764420 158.909180,71.051819 
	C162.155884,70.666245 166.044983,71.223686 165.918488,66.420013 
	C165.804321,62.083626 162.744110,61.185158 158.791428,60.873196 
	C153.335831,60.442616 150.212326,62.555367 148.797516,67.820526 
	C146.692368,67.820526 144.585663,67.820526 142.488892,67.820526 
	C141.570099,60.733963 145.855530,54.855026 153.353134,54.173584 
	C157.799026,53.769508 162.549683,54.349960 166.869263,55.547962 
	C171.832336,56.924431 173.970108,61.124580 173.988770,66.246597 
	C174.016632,73.892815 173.996002,81.539215 173.996002,89.534683 
	C175.171967,89.788055 176.358948,90.043800 177.770859,90.348000 
	C177.770859,92.041908 177.770859,93.788162 177.770859,95.937508 
	C173.642838,95.276123 168.240280,98.530060 166.934799,92.453094 
	C162.159927,93.938545 157.327271,96.124878 152.302765,96.737366 
	C149.492172,97.079987 145.661118,95.558014 143.533905,93.555031 
	C139.862503,90.098053 137.901810,84.389450 141.976166,77.164139 
M148.391846,82.082268 
	C147.723877,87.672539 150.234085,90.383339 155.723099,89.999397 
	C162.564774,89.520844 166.526245,84.011086 165.620956,76.233597 
	C163.911499,76.491302 162.116745,76.501640 160.509521,77.055847 
	C156.611923,78.399834 152.801605,79.996956 148.391846,82.082268 
z"/>
<path fill="#FFFFFF" opacity="1.000000" stroke="none" 
	d="
M432.101685,96.994843 
	C429.705322,96.401009 427.564606,96.116547 425.789062,95.156631 
	C420.661011,92.384262 418.330475,86.415176 420.112549,80.011055 
	C421.546570,74.857742 425.943176,72.923470 430.729553,72.059723 
	C434.085938,71.454033 437.616882,71.684975 440.902405,70.868362 
	C442.775757,70.402733 445.700470,68.563698 445.682678,67.380173 
	C445.654633,65.514122 443.913422,62.565239 442.258301,62.022030 
	C434.629974,59.518356 429.527039,60.884262 428.738556,67.833290 
	C426.646912,67.833290 424.536652,67.833290 422.455353,67.833290 
	C420.552277,58.041470 427.386627,55.099655 434.071625,54.170399 
	C437.999084,53.624462 442.362122,54.069881 446.152771,55.264282 
	C450.218048,56.545242 453.411377,59.237450 453.093018,64.623596 
	C452.691376,71.419662 453.018585,78.257584 452.986176,85.077240 
	C452.971161,88.237007 453.766388,90.585114 457.799438,90.022072 
	C457.799438,92.042404 457.799438,93.799759 457.799438,95.955490 
	C453.589050,95.478310 448.634094,98.139252 446.721649,92.535019 
	C441.869568,94.059486 437.196869,95.527596 432.101685,96.994843 
M440.572845,77.002876 
	C437.921936,77.615570 435.299622,78.484482 432.613770,78.784172 
	C427.951569,79.304390 426.868591,82.816246 428.317230,85.781555 
	C429.343811,87.882835 433.222931,89.916428 435.675201,89.747765 
	C443.156921,89.233200 446.570251,84.021164 445.587891,76.157532 
	C444.205933,76.438377 442.824005,76.719215 440.572845,77.002876 
z"/>
<path fill="#FFFFFF" opacity="1.000000" stroke="none" 
	d="
M224.996063,83.985016 
	C224.996063,87.793915 224.996063,91.107101 224.996063,94.706116 
	C222.385849,94.706116 219.979477,94.706116 217.003937,94.706116 
	C217.003937,85.709648 217.003937,76.603806 217.003937,67.497955 
	C217.003937,58.521027 217.003937,49.544098 217.003937,40.286541 
	C219.627853,40.286541 222.033737,40.286541 224.772949,40.286541 
	C224.772949,45.965012 224.772949,51.730186 224.772949,58.307369 
	C230.719009,53.934536 236.668076,52.812805 243.086884,55.029392 
	C247.253296,56.468166 249.671585,59.847961 249.840698,63.746120 
	C250.286316,74.019089 249.991440,84.324181 249.991440,94.803772 
	C247.538498,94.803772 245.470535,94.803772 243.003937,94.803772 
	C243.003937,87.670189 243.101334,80.708984 242.957474,73.752777 
	C242.897339,70.845001 242.548370,67.898842 241.926300,65.058723 
	C241.212097,61.797913 235.696945,60.018940 231.927551,61.537151 
	C227.199585,63.441437 225.160461,67.127899 225.018570,71.991234 
	C224.906830,75.820885 224.996078,79.656395 224.996063,83.985016 
z"/>
<path fill="#FFFFFF" opacity="1.000000" stroke="none" 
	d="
M306.995087,76.738228 
	C305.758301,82.691582 304.703217,88.269279 300.195892,92.313728 
	C294.422363,97.494354 287.562958,98.063805 280.755890,95.744370 
	C274.624786,93.655266 271.219360,88.676704 269.943054,82.133484 
	C268.349731,73.965233 269.131287,66.563507 274.572266,59.828972 
	C279.703400,53.477909 286.697357,52.890934 293.484497,54.399426 
	C301.236603,56.122391 305.611237,62.206726 306.022247,68.087196 
	C306.214050,70.830696 306.663361,73.556190 306.995087,76.738228 
M278.000854,69.799210 
	C277.667358,72.355278 276.808624,74.970985 277.090912,77.457130 
	C278.338562,88.445168 286.578033,93.790611 293.874298,87.628487 
	C297.227386,84.796593 298.355408,78.255524 298.709625,73.269775 
	C299.022186,68.870255 297.617523,63.998207 292.333191,61.771927 
	C286.108978,59.149658 282.168488,60.987789 278.000854,69.799210 
z"/>
<path fill="#FFFFFF" opacity="1.000000" stroke="none" 
	d="
M179.055511,82.892929 
	C181.544281,82.251701 183.988785,82.046822 186.374130,81.846901 
	C187.973770,89.435791 196.155029,92.945160 202.344162,88.757629 
	C203.692963,87.845024 204.803589,85.593071 204.786957,83.970657 
	C204.774292,82.734215 203.031799,80.951958 201.661896,80.402771 
	C198.109024,78.978447 194.372375,77.957779 190.644852,77.035652 
	C183.612091,75.295853 179.974762,71.952408 180.004059,66.943092 
	C180.040146,60.771976 184.006027,55.384121 190.513702,54.348911 
	C194.587280,53.700909 199.020142,54.258080 203.122818,55.098907 
	C208.939224,56.290947 211.201508,60.856602 212.062775,66.677338 
	C209.517242,66.677338 207.120529,66.677338 204.638870,66.677338 
	C202.509460,61.260174 196.227936,58.962372 190.740952,61.757725 
	C187.249146,63.536629 186.954819,66.964432 190.484955,68.701088 
	C193.602417,70.234741 197.081284,71.139732 200.487869,71.959518 
	C209.971451,74.241684 212.861084,76.531181 212.996017,82.303696 
	C213.174423,89.935585 209.468567,94.969345 200.739960,96.559044 
	C190.654327,98.395882 180.570114,96.048790 179.055511,82.892929 
z"/>
<path fill="#FFFFFF" opacity="1.000000" stroke="none" 
	d="
M382.770233,90.003929 
	C387.152588,90.063766 390.385742,87.784935 390.435150,84.405647 
	C390.460968,82.641525 386.474579,80.342148 383.899902,79.147408 
	C381.196564,77.892982 378.016296,77.662415 375.041351,76.998238 
	C369.337097,75.724731 365.106384,72.383919 365.184814,67.839989 
	C365.264069,63.249268 366.366760,58.897755 371.254730,56.065292 
	C380.154694,50.907974 393.017639,54.145752 396.540588,63.074062 
	C396.945770,64.100815 396.937347,65.290749 397.172302,66.718651 
	C394.490387,66.718651 392.075073,66.718651 389.600403,66.718651 
	C387.745941,61.690079 381.336700,58.800293 376.490082,61.240406 
	C375.033173,61.973927 373.383392,63.787796 373.254089,65.234764 
	C373.149384,66.405876 374.949829,68.385391 376.330383,68.931480 
	C380.462128,70.565842 384.813873,71.637383 389.059113,72.993210 
	C396.840271,75.478310 398.346405,77.560486 397.996002,85.172646 
	C397.750275,90.509865 393.694916,94.384193 387.544189,96.069778 
	C381.444244,97.741447 375.510345,97.485291 370.153381,94.470406 
	C365.782166,92.010300 364.445038,87.281517 364.012787,82.197464 
	C366.625214,82.197464 369.078125,82.197464 371.525238,82.197464 
	C372.643036,88.041283 375.354675,89.988930 382.770233,90.003929 
z"/>
<path fill="#FFFFFF" opacity="1.000000" stroke="none" 
	d="
M474.156891,54.003960 
	C479.839172,53.752121 484.876343,54.451908 488.257233,58.898487 
	C489.852570,60.996735 490.562195,63.768414 491.948517,66.846397 
	C488.631256,66.846397 486.669037,66.846397 484.258148,66.846397 
	C483.076263,60.271553 477.839386,60.544170 472.924103,61.163979 
	C471.158417,61.386627 469.633545,63.518887 467.998779,64.779648 
	C469.477936,66.517899 470.627533,69.023598 472.506622,69.830544 
	C476.134705,71.388573 480.145599,72.124397 484.050842,72.950096 
	C488.989441,73.994263 492.127838,76.858406 492.936737,81.771828 
	C493.834045,87.222519 491.067596,91.527519 486.924408,94.390060 
	C481.315643,98.265167 467.107117,98.728065 462.309387,91.681992 
	C460.512360,89.042870 459.516785,85.858040 458.119812,82.844376 
	C463.474182,80.863945 465.951691,82.324127 467.954346,86.404167 
	C470.230530,91.041405 481.308167,91.508469 484.135010,87.225296 
	C485.595001,85.013199 486.291840,82.191818 482.559479,80.957390 
	C478.473816,79.606125 474.353973,78.358574 470.261169,77.028496 
	C461.928619,74.320557 459.111206,70.882126 460.010712,64.577362 
	C460.874420,58.523907 466.081390,54.504414 474.156891,54.003960 
z"/>
<path fill="#FFFFFF" opacity="1.000000" stroke="none" 
	d="
M319.996094,89.878006 
	C319.996094,91.819344 319.996094,93.273819 319.996094,94.849121 
	C317.234924,94.849121 314.943298,94.849121 312.327209,94.849121 
	C312.327209,81.705284 312.327209,68.505852 312.327209,55.154053 
	C314.383789,55.154053 316.337280,55.154053 318.664429,55.154053 
	C318.838562,56.233086 319.027252,57.402470 319.271271,58.914661 
	C324.560120,54.471577 330.206848,52.556160 336.867432,54.918415 
	C342.251251,56.827854 344.833160,59.690311 344.945099,65.501068 
	C345.130676,75.132767 344.995575,84.770638 344.995575,94.700256 
	C342.399109,94.700256 339.996582,94.700256 337.003906,94.700256 
	C337.003906,86.406975 337.010040,77.978874 337.001770,69.550789 
	C336.996185,63.844090 334.780731,61.077427 330.181702,60.996162 
	C325.087006,60.906139 320.096039,65.183060 320.021637,69.915741 
	C319.919617,76.406067 319.996124,82.899216 319.996094,89.878006 
z"/>
<path fill="#FFFFFF" opacity="1.000000" stroke="none" 
	d="
M410.996094,50.918701 
	C411.051147,52.511944 411.106171,53.630764 411.170319,54.934986 
	C413.433441,54.934986 415.391144,54.934986 417.781921,54.934986 
	C417.875122,56.858009 417.959747,58.604172 418.062317,60.720757 
	C415.812164,60.720757 413.722717,60.720757 411.014893,60.720757 
	C411.014893,69.332840 410.726196,77.619690 411.268402,85.851807 
	C411.371765,87.421684 414.756531,88.775429 417.132050,89.872704 
	C417.297668,91.721169 420.059357,95.345238 414.939972,95.988205 
	C407.842712,96.879585 404.162354,94.821434 404.052948,89.540482 
	C403.873505,80.878250 404.005615,72.209602 403.999268,63.543663 
	C403.998810,62.893059 403.942261,62.242496 403.895752,61.249527 
	C402.087311,61.110893 400.344238,60.977272 398.205811,60.813339 
	C398.128693,59.101086 398.049988,57.353188 397.956421,55.275848 
	C399.894623,55.127228 401.656525,54.992126 403.805878,54.827312 
	C403.805878,51.468967 403.805878,48.042957 403.805878,44.311298 
	C406.250671,44.311298 408.321625,44.311298 410.996094,44.311298 
	C410.996094,46.242760 410.996094,48.343521 410.996094,50.918701 
z"/>
<path fill="#FFFFFF" opacity="1.000000" stroke="none" 
	d="
M260.053284,55.004158 
	C261.834015,55.003990 263.139008,55.003990 264.719482,55.003990 
	C264.719482,68.357246 264.719482,81.508408 264.719482,94.828430 
	C262.283997,94.828430 260.003662,94.828430 257.003906,94.828430 
	C257.003906,90.235023 257.003876,85.509605 257.003906,80.784187 
	C257.003906,73.324295 257.012421,65.864388 256.997955,58.404518 
	C256.994446,56.588272 256.592285,54.527554 260.053284,55.004158 
z"/>
<path fill="#FFFFFF" opacity="1.000000" stroke="none" 
	d="
M359.996094,74.000336 
	C359.996094,81.141792 359.996094,87.783363 359.996094,94.709656 
	C357.380066,94.709656 354.974579,94.709656 352.003906,94.709656 
	C352.003906,88.209702 352.003906,81.604965 352.003906,75.000229 
	C352.003906,68.525215 352.003906,62.050194 352.003906,55.290413 
	C354.619568,55.290413 357.022705,55.290413 359.996094,55.290413 
	C359.996094,61.291225 359.996094,67.395836 359.996094,74.000336 
z"/>
<path fill="#FFFFFF" opacity="1.000000" stroke="none" 
	d="
M353.185059,48.965248 
	C352.390564,46.121574 352.066132,43.304585 351.711792,40.227638 
	C354.704987,40.227638 357.086945,40.227638 359.735291,40.227638 
	C359.735291,42.951847 359.735291,45.666367 359.735291,48.991932 
	C357.774567,48.991932 355.714844,48.991932 353.185059,48.965248 
z"/>
<path fill="#FFFFFF" opacity="1.000000" stroke="none" 
	d="
M264.966278,41.212700 
	C264.992126,43.953629 264.992126,46.223839 264.992126,48.743488 
	C262.355499,48.743488 259.971924,48.743488 257.292847,48.743488 
	C257.292847,46.108715 257.292847,43.392715 257.292847,39.865269 
	C259.767395,40.148949 262.353912,40.445469 264.966278,41.212700 
z"/>
<path fill="#070707" opacity="1.000000" stroke="none" 
	d="
M116.649399,48.506306 
	C132.157471,84.190155 108.108002,121.461105 70.306808,120.946106 
	C44.118916,120.589325 22.278463,99.138077 21.163969,72.678993 
	C20.068539,46.672543 39.606106,23.734606 65.317635,20.840706 
	C87.044716,18.395269 106.004616,28.529774 116.649399,48.506306 
M87.752991,55.791401 
	C86.448006,54.958538 85.221474,53.620995 83.820862,53.403275 
	C81.303734,53.011993 78.682121,53.292812 75.055641,53.292812 
	C75.961998,48.473473 75.411491,43.171757 77.715851,41.190536 
	C80.726822,38.601799 85.996658,38.640350 90.774811,37.426620 
	C91.088005,35.445999 91.520020,32.713989 92.042740,29.408381 
	C85.009613,28.914864 78.357880,27.355793 72.159981,30.935249 
	C63.440388,35.971050 65.760719,45.044098 64.903137,53.036198 
	C61.831673,53.222412 59.081924,53.389126 56.299469,53.557819 
	C56.299469,56.375904 56.299469,58.796425 56.299469,61.455936 
	C59.303139,61.642925 62.039623,61.813282 65.271790,62.014496 
	C65.271790,79.810402 65.271790,97.219322 65.271790,114.702240 
	C69.046913,114.702240 72.282005,114.702240 76.012009,114.702240 
	C76.012009,96.980255 76.012009,79.567451 76.012009,61.588730 
	C80.078880,61.588730 83.655472,61.588730 87.503639,61.588730 
	C87.610924,59.569775 87.688545,58.108990 87.752991,55.791401 
z"/>
<path fill="#000000" opacity="1.000000" stroke="none" 
	d="
M148.673981,81.787170 
	C152.801605,79.996956 156.611923,78.399834 160.509521,77.055847 
	C162.116745,76.501640 163.911499,76.491302 165.620941,76.233398 
	C166.526245,84.011086 162.564774,89.520844 155.723099,89.999397 
	C150.234085,90.383339 147.723877,87.672539 148.673981,81.787170 
z"/>
<path fill="#000000" opacity="1.000000" stroke="none" 
	d="
M441.007446,77.001465 
	C442.824005,76.719215 444.205933,76.438377 445.587891,76.157532 
	C446.570251,84.021164 443.156921,89.233200 435.675201,89.747765 
	C433.222931,89.916428 429.343811,87.882835 428.317230,85.781555 
	C426.868591,82.816246 427.951569,79.304390 432.613770,78.784172 
	C435.299622,78.484482 437.921936,77.615570 441.007446,77.001465 
z"/>
<path fill="#000000" opacity="1.000000" stroke="none" 
	d="
M278.009888,69.381615 
	C282.168488,60.987789 286.108978,59.149658 292.333191,61.771927 
	C297.617523,63.998207 299.022186,68.870255 298.709625,73.269775 
	C298.355408,78.255524 297.227386,84.796593 293.874298,87.628487 
	C286.578033,93.790611 278.338562,88.445168 277.090912,77.457130 
	C276.808624,74.970985 277.667358,72.355278 278.009888,69.381615 
z"/>
<path fill="#D00F7C" opacity="1.000000" stroke="none" 
	d="
M87.759575,56.219803 
	C87.688545,58.108990 87.610924,59.569775 87.503639,61.588730 
	C83.655472,61.588730 80.078880,61.588730 76.012009,61.588730 
	C76.012009,79.567451 76.012009,96.980255 76.012009,114.702240 
	C72.282005,114.702240 69.046913,114.702240 65.271790,114.702240 
	C65.271790,97.219322 65.271790,79.810402 65.271790,62.014496 
	C62.039623,61.813282 59.303139,61.642925 56.299469,61.455936 
	C56.299469,58.796425 56.299469,56.375904 56.299469,53.557819 
	C59.081924,53.389126 61.831673,53.222412 64.903137,53.036198 
	C65.760719,45.044098 63.440388,35.971050 72.159981,30.935249 
	C78.357880,27.355793 85.009613,28.914864 92.042740,29.408381 
	C91.520020,32.713989 91.088005,35.445999 90.774811,37.426620 
	C85.996658,38.640350 80.726822,38.601799 77.715851,41.190536 
	C75.411491,43.171757 75.961998,48.473473 75.055641,53.292812 
	C78.682121,53.292812 81.303734,53.011993 83.820862,53.403275 
	C85.221474,53.620995 86.448006,54.958538 87.759575,56.219803 
z"/>
</svg>