<svg version="1.1" id="Layer_1" xmlns="http://www.w3.org/2000/svg" xmlns:xlink="http://www.w3.org/1999/xlink" x="0px" y="0px"
	 width="100%" viewBox="0 0 127 126" enable-background="new 0 0 127 126" xml:space="preserve">
<path fill="#030303" opacity="1.000000" stroke="none" 
	d="
M53.000000,127.000000 
	C53.000000,127.000000 52.500000,127.000000 51.944809,126.716141 
	C49.581444,126.290016 47.773594,126.029381 45.965046,126.024460 
	C32.978809,125.989090 19.990059,125.867233 7.007515,126.089218 
	C3.059917,126.156723 1.900947,124.964912 1.915038,121.005394 
	C2.050131,83.045815 2.037840,45.085445 1.929242,7.125696 
	C1.918543,3.385954 2.714100,1.886881 6.875903,1.903761 
	C45.334805,2.059752 83.794739,2.041558 122.253914,1.923633 
	C125.983978,1.912195 127.087784,3.038449 127.076302,6.756546 
	C126.958641,44.882725 126.963875,83.009521 127.070366,121.135765 
	C127.080376,124.717598 126.235428,126.137596 122.361038,126.085854 
	C107.379456,125.885765 92.393410,126.040230 77.409798,125.942947 
	C75.893257,125.933105 74.381966,125.116272 73.185005,124.461594 
	C83.441559,122.887672 92.521172,119.244019 100.332176,113.023560 
	C118.708229,98.389404 126.522377,79.137985 122.547562,56.052448 
	C118.676613,33.570179 105.247536,18.193319 83.669945,10.694126 
	C63.320389,3.621727 44.387505,7.513110 27.966314,21.105507 
	C10.512747,35.552444 3.323266,54.766396 7.718596,76.885880 
	C12.945631,103.190903 29.877382,118.852608 55.983765,124.680573 
	C54.887199,125.667030 53.943600,126.333519 53.000000,127.000000 
z"/>
<path fill="#121212" opacity="1.000000" stroke="none" 
	d="
M72.868240,124.673927 
	C74.381966,125.116272 75.893257,125.933105 77.409798,125.942947 
	C92.393410,126.040230 107.379456,125.885765 122.361038,126.085854 
	C126.235428,126.137596 127.080376,124.717598 127.070366,121.135765 
	C126.963875,83.009521 126.958641,44.882725 127.076302,6.756546 
	C127.087784,3.038449 125.983978,1.912195 122.253914,1.923633 
	C83.794739,2.041558 45.334805,2.059752 6.875903,1.903761 
	C2.714100,1.886881 1.918543,3.385954 1.929242,7.125696 
	C2.037840,45.085445 2.050131,83.045815 1.915038,121.005394 
	C1.900947,124.964912 3.059917,126.156723 7.007515,126.089218 
	C19.990059,125.867233 32.978809,125.989090 45.965046,126.024460 
	C47.773594,126.029381 49.581444,126.290016 51.694809,126.716141 
	C35.014732,127.000000 18.029469,127.000000 1.022101,127.000000 
	C1.022101,85.051147 1.022101,43.102276 1.022101,1.076704 
	C43.245388,1.076704 85.490952,1.076704 127.868256,1.076704 
	C127.868256,42.999763 127.868256,84.999817 127.870682,126.999931 
	C103.227852,127.000000 78.582581,127.000000 53.468658,127.000000 
	C53.943600,126.333519 54.887199,125.667030 56.444149,124.655251 
	C62.327747,124.431282 67.597992,124.552605 72.868240,124.673927 
z"/>
<path fill="#F5F5F5" opacity="1.000000" stroke="none" 
	d="
M73.185005,124.461594 
	C67.597992,124.552605 62.327747,124.431282 56.597115,124.335281 
	C29.877382,118.852608 12.945631,103.190903 7.718596,76.885880 
	C3.323266,54.766396 10.512747,35.552444 27.966314,21.105507 
	C44.387505,7.513110 63.320389,3.621727 83.669945,10.694126 
	C105.247536,18.193319 118.676613,33.570179 122.547562,56.052448 
	C126.522377,79.137985 118.708229,98.389404 100.332176,113.023560 
	C92.521172,119.244019 83.441559,122.887672 73.185005,124.461594 
M101.714600,31.808540 
	C84.458885,15.027485 61.377918,11.148046 41.728413,21.726089 
	C21.998636,32.347347 11.851736,53.738220 15.991982,75.981560 
	C22.804592,112.582085 67.479607,128.939682 96.327148,105.607666 
	C118.177528,87.934982 122.211258,54.789715 101.714600,31.808540 
z"/>
<path fill="#080607" opacity="1.000000" stroke="none" 
	d="
M101.958344,32.067596 
	C122.211258,54.789715 118.177528,87.934982 96.327148,105.607666 
	C67.479607,128.939682 22.804592,112.582085 15.991982,75.981560 
	C11.851736,53.738220 21.998636,32.347347 41.728413,21.726089 
	C61.377918,11.148046 84.458885,15.027485 101.958344,32.067596 
M69.217567,104.090294 
	C69.294273,88.414856 69.370979,72.739418 70.319283,57.041332 
	C73.772057,57.041332 77.224831,57.041332 80.845886,57.041332 
	C80.845886,54.134689 80.845886,51.750526 80.845886,48.762741 
	C76.831291,48.762741 73.116386,48.762741 68.374115,48.762741 
	C69.336899,44.169983 68.905457,38.977947 71.244804,36.889351 
	C74.222122,34.231163 79.442749,34.085602 84.280991,32.687908 
	C84.534233,30.800701 84.897232,28.095594 85.271225,25.308548 
	C78.102180,24.149664 71.307480,22.959393 65.328392,26.710482 
	C57.051342,31.903231 59.554119,41.085953 58.681549,49.156437 
	C55.530930,49.156437 52.926346,49.156437 50.218994,49.156437 
	C50.218994,51.921921 50.218994,54.308136 50.218994,57.244751 
	C53.270737,57.244751 55.989613,57.244751 59.047787,57.244751 
	C59.047787,75.044388 59.047787,92.288185 59.047787,109.494705 
	C62.549320,109.908173 65.690529,110.279083 69.318199,110.707443 
	C69.197624,108.277946 69.116661,106.646767 69.217567,104.090294 
z"/>
<path fill="#D91081" opacity="1.000000" stroke="none" 
	d="
M69.035706,105.015579 
	C69.116661,106.646767 69.197624,108.277946 69.318199,110.707443 
	C65.690529,110.279083 62.549320,109.908173 59.047787,109.494705 
	C59.047787,92.288185 59.047787,75.044388 59.047787,57.244751 
	C55.989613,57.244751 53.270737,57.244751 50.218994,57.244751 
	C50.218994,54.308136 50.218994,51.921921 50.218994,49.156437 
	C52.926346,49.156437 55.530930,49.156437 58.681549,49.156437 
	C59.554119,41.085953 57.051342,31.903231 65.328392,26.710482 
	C71.307480,22.959393 78.102180,24.149664 85.271225,25.308548 
	C84.897232,28.095594 84.534233,30.800701 84.280991,32.687908 
	C79.442749,34.085602 74.222122,34.231163 71.244804,36.889351 
	C68.905457,38.977947 69.336899,44.169983 68.374115,48.762741 
	C73.116386,48.762741 76.831291,48.762741 80.845886,48.762741 
	C80.845886,51.750526 80.845886,54.134689 80.845886,57.041332 
	C77.224831,57.041332 73.772057,57.041332 69.510742,57.272434 
	C68.472145,58.280136 68.043861,59.056122 68.041451,59.833435 
	C67.997940,73.831177 67.983452,87.829163 68.047409,101.826721 
	C68.052269,102.891159 68.691399,103.952698 69.035706,105.015579 
z"/>
<path fill="#E91081" opacity="1.000000" stroke="none" 
	d="
M69.126633,104.552933 
	C68.691399,103.952698 68.052269,102.891159 68.047409,101.826721 
	C67.983452,87.829163 67.997940,73.831177 68.041451,59.833435 
	C68.043861,59.056122 68.472145,58.280136 69.074944,57.283760 
	C69.370979,72.739418 69.294273,88.414856 69.126633,104.552933 
z"/>
</svg>